#!OML:ASF I:\Actors\actors\Patient Classification 2\Patient 1\Session 1\actor1.ASF
:FULLY-SPECIFIED
:DEGREES
501
root -0.725243 18.6649 5.98697 10.5936 -4.34656 -3.16174
lowerback 24.5033 -1.49666 4.42787
upperback 3.04647 -0.597318 1.67798
thorax -10.3217 -0.425069 -0.474127
lowerneck -13.8511 -8.98304 -8.23389
upperneck 17.6312 -12.3855 8.99147
head 8.88656 -5.52717 2.83604
rclavicle -7.7526e-015 4.57205e-015
rhumerus -86.7572 23.8686 -106.468
rradius 110.572
rwrist -9.64838
rhand -12.7725 -42.7242
rfingers 7.12502
rthumb 13.3125 -72.279
lclavicle -7.7526e-015 4.57205e-015
lhumerus -86.8676 -25.218 114.303
lradius 110.688
lwrist 28.3486
lhand -24.6156 -19.7491
lfingers 7.12502
lthumb 1.88277 10.2224
rfemur -8.9554 0.0461391 16.5158
rtibia 11.0091
rfoot -17.0409 -9.54646
rtoes -13.0774
lfemur -18.6503 0.583339 -10.9041
ltibia 29.8589
lfoot -21.8731 9.33649
ltoes -56.4884
502
root -0.714218 18.6633 5.9838 10.4172 -4.37439 -3.34869
lowerback 24.3941 -1.61958 4.77436
upperback 2.96541 -0.665307 1.71214
thorax -10.3616 -0.471543 -0.611939
lowerneck -13.7773 -8.95554 -8.26794
upperneck 17.6848 -12.3501 8.9861
head 8.88994 -5.51503 2.84734
rclavicle 1.42131e-014 -1.41137e-014
rhumerus -86.8204 23.7652 -106.509
rradius 110.528
rwrist -9.5192
rhand -12.9078 -42.6605
rfingers 7.12502
rthumb 13.1821 -72.2238
lclavicle 1.42131e-014 -1.41137e-014
lhumerus -87.0839 -25.2747 114.354
lradius 110.7
lwrist 28.4833
lhand -24.6815 -19.7021
lfingers 7.12502
lthumb 1.81917 10.2699
rfemur -8.50498 -0.0487609 16.6996
rtibia 10.514
rfoot -16.818 -9.55193
rtoes -13.169
lfemur -18.3853 0.585962 -10.7353
ltibia 29.8059
lfoot -21.9546 9.27854
ltoes -56.3482
503
root -0.710194 18.6624 5.98477 10.2947 -4.50037 -3.36024
lowerback 24.1646 -1.64016 4.77008
upperback 2.93811 -0.702564 1.7569
thorax -10.2713 -0.486919 -0.550966
lowerneck -13.8386 -8.96595 -8.29503
upperneck 17.7842 -12.343 8.88864
head 8.92908 -5.51895 2.817
rclavicle -1.50082e-014 7.15625e-015
rhumerus -86.7466 23.7155 -106.449
rradius 110.51
rwrist -9.52007
rhand -13.0151 -42.6214
rfingers 7.12502
rthumb 13.0787 -72.1913
lclavicle -1.50082e-014 7.15625e-015
lhumerus -87.1467 -25.3181 114.406
lradius 110.683
lwrist 28.6798
lhand -24.6973 -19.688
lfingers 7.12502
lthumb 1.80395 10.2842
rfemur -8.20774 0.0449316 16.6893
rtibia 10.1877
rfoot -16.6817 -9.64685
rtoes -13.8085
lfemur -18.1385 0.667862 -10.7624
ltibia 29.7009
lfoot -21.9582 9.31719
ltoes -56.3643
504
root -0.712682 18.6641 5.98959 10.2856 -4.73446 -3.1919
lowerback 23.784 -1.56307 4.43073
upperback 2.9146 -0.708869 1.80742
thorax -10.0907 -0.473324 -0.305679
lowerneck -13.9737 -8.98063 -8.41035
upperneck 17.9159 -12.3298 8.83767
head 9.00142 -5.51826 2.81387
rclavicle 1.33186e-014 2.5842e-015
rhumerus -86.6393 23.7019 -106.283
rradius 110.576
rwrist -9.6231
rhand -13.0491 -42.5287
rfingers 7.12502
rthumb 13.0459 -72.1007
lclavicle 1.33186e-014 2.5842e-015
lhumerus -87.1789 -25.3142 114.502
lradius 110.627
lwrist 28.764
lhand -24.7135 -19.7301
lfingers 7.12502
lthumb 1.78824 10.2422
rfemur -8.22638 0.356647 16.4704
rtibia 10.1813
rfoot -16.7405 -9.79344
rtoes -14.2923
lfemur -17.9799 0.811022 -10.9865
ltibia 29.5234
lfoot -21.8974 9.45124
ltoes -56.5704
505
root -0.719539 18.6661 5.99754 10.3341 -5.10317 -2.77592
lowerback 23.2701 -1.40404 3.73348
upperback 2.89774 -0.710519 1.7963
thorax -9.82706 -0.444888 0.070867
lowerneck -13.948 -8.95923 -8.49509
upperneck 17.9128 -12.2836 8.83831
head 8.99696 -5.5033 2.83505
rclavicle 1.68967e-015 -2.52457e-014
rhumerus -86.5748 23.6832 -106.141
rradius 110.684
rwrist -9.719
rhand -12.9513 -42.4893
rfingers 7.12502
rthumb 13.1401 -72.0553
lclavicle 1.68967e-015 -2.52457e-014
lhumerus -87.2428 -25.2961 114.566
lradius 110.598
lwrist 28.7642
lhand -24.7851 -19.7534
lfingers 7.12502
lthumb 1.71913 10.2194
rfemur -8.43204 0.836956 15.9576
rtibia 10.3304
rfoot -16.9255 -9.91115
rtoes -14.0801
lfemur -17.8957 1.00028 -11.4866
ltibia 29.3452
lfoot -21.9 9.58779
ltoes -56.6499
506
root -0.718969 18.6665 5.99675 10.339 -5.32706 -2.47881
lowerback 22.9366 -1.36184 3.34713
upperback 2.86849 -0.772703 1.75661
thorax -9.67856 -0.459431 0.260718
lowerneck -13.8712 -8.8973 -8.44908
upperneck 17.8562 -12.209 8.83713
head 8.95341 -5.46952 2.8416
rclavicle 2.03754e-014 9.74045e-015
rhumerus -86.4844 23.6459 -106.127
rradius 110.697
rwrist -9.71865
rhand -12.7381 -42.6228
rfingers 7.12502
rthumb 13.3456 -72.1754
lclavicle 2.03754e-014 9.74045e-015
lhumerus -87.3178 -25.3214 114.566
lradius 110.581
lwrist 28.7685
lhand -24.9313 -19.6756
lfingers 7.12502
lthumb 1.57795 10.2983
rfemur -8.59381 1.05591 15.5807
rtibia 10.4972
rfoot -17.0456 -9.87262
rtoes -13.6573
lfemur -17.8354 1.09588 -11.8514
ltibia 29.2214
lfoot -21.9194 9.64153
ltoes -56.5143
507
root -0.711213 18.6666 5.98779 10.3396 -5.38359 -2.43506
lowerback 22.8034 -1.43437 3.42703
upperback 2.79298 -0.853368 1.7383
thorax -9.69479 -0.501403 0.218447
lowerneck -13.8426 -8.84559 -8.39128
upperneck 17.8819 -12.1536 8.82791
head 8.94727 -5.44144 2.83858
rclavicle -9.93923e-016 1.59028e-014
rhumerus -86.3642 23.5421 -106.226
rradius 110.582
rwrist -9.56074
rhand -12.681 -42.7893
rfingers 7.12502
rthumb 13.4007 -72.3383
lclavicle -9.93923e-016 1.59028e-014
lhumerus -87.4587 -25.3826 114.593
lradius 110.551
lwrist 28.7873
lhand -25.0597 -19.5636
lfingers 7.12502
lthumb 1.45394 10.4112
rfemur -8.70023 1.00966 15.5029
rtibia 10.603
rfoot -17.0362 -9.76754
rtoes -13.5092
lfemur -17.8332 1.09212 -11.9314
ltibia 29.1683
lfoot -21.9222 9.7029
ltoes -56.4201
508
root -0.701742 18.6668 5.97778 10.3363 -5.43955 -2.52426
lowerback 22.6968 -1.49791 3.62898
upperback 2.74777 -0.886155 1.78019
thorax -9.69124 -0.524039 0.158219
lowerneck -13.8236 -8.84925 -8.48966
upperneck 17.9138 -12.1619 8.91838
head 8.96833 -5.4432 2.88384
rclavicle 1.09332e-015 1.35174e-014
rhumerus -86.2308 23.4039 -106.275
rradius 110.441
rwrist -9.28223
rhand -12.844 -42.801
rfingers 7.12502
rthumb 13.2436 -72.3603
lclavicle 1.09332e-015 1.35174e-014
lhumerus -87.5543 -25.5009 114.665
lradius 110.533
lwrist 28.8696
lhand -25.13 -19.541
lfingers 7.12502
lthumb 1.38601 10.4342
rfemur -8.72583 0.991251 15.5754
rtibia 10.5658
rfoot -16.9431 -9.74961
rtoes -13.6106
lfemur -17.857 1.08713 -11.8643
ltibia 29.1853
lfoot -21.9349 9.80152
ltoes -56.4409
509
root -0.691331 18.6665 5.96781 10.3104 -5.56045 -2.57345
lowerback 22.5962 -1.52793 3.73933
upperback 2.74255 -0.899119 1.82534
thorax -9.64434 -0.533227 0.147018
lowerneck -13.8174 -8.8679 -8.57975
upperneck 17.9123 -12.1869 8.99984
head 8.98073 -5.45321 2.92199
rclavicle -1.09332e-014 -4.17448e-015
rhumerus -86.1278 23.3224 -106.24
rradius 110.365
rwrist -9.04579
rhand -12.9128 -42.7651
rfingers 7.12502
rthumb 13.1773 -72.3287
lclavicle -1.09332e-014 -4.17448e-015
lhumerus -87.5733 -25.6316 114.731
lradius 110.505
lwrist 29.0215
lhand -25.2193 -19.5774
lfingers 7.12502
lthumb 1.29981 10.3984
rfemur -8.69347 1.04268 15.5883
rtibia 10.4276
rfoot -16.7829 -9.77478
rtoes -13.7067
lfemur -17.8601 1.1229 -11.8535
ltibia 29.2277
lfoot -21.9527 9.86601
ltoes -56.4343
510
root -0.681382 18.6665 5.95993 10.2977 -5.74148 -2.55612
lowerback 22.5035 -1.53379 3.7369
upperback 2.72311 -0.908061 1.86446
thorax -9.61585 -0.536667 0.19266
lowerneck -13.8998 -8.84363 -8.50163
upperneck 17.9889 -12.1405 8.8576
head 9.00228 -5.43606 2.86515
rclavicle -1.28216e-014 2.24627e-014
rhumerus -86.1433 23.3409 -106.213
rradius 110.419
rwrist -9.01556
rhand -12.8829 -42.941
rfingers 7.12502
rthumb 13.2061 -72.5027
lclavicle -1.28216e-014 2.24627e-014
lhumerus -87.5911 -25.654 114.8
lradius 110.47
lwrist 29.1008
lhand -25.3461 -19.636
lfingers 7.12502
lthumb 1.17735 10.3405
rfemur -8.67863 1.11171 15.5175
rtibia 10.2804
rfoot -16.604 -9.76214
rtoes -13.7187
lfemur -17.8506 1.22825 -11.9284
ltibia 29.2575
lfoot -21.9792 9.92002
ltoes -56.4574
511
root -0.672235 18.6671 5.95453 10.2849 -5.95329 -2.52518
lowerback 22.4126 -1.51757 3.69231
upperback 2.71385 -0.897791 1.91387
thorax -9.57558 -0.52914 0.267622
lowerneck -13.9351 -8.77488 -8.42578
upperneck 17.9879 -12.0334 8.73973
head 8.98499 -5.39148 2.82782
rclavicle -1.21259e-014 -5.1684e-015
rhumerus -86.2202 23.3958 -106.183
rradius 110.555
rwrist -9.06791
rhand -12.8674 -43.096
rfingers 7.12502
rthumb 13.221 -72.6568
lclavicle -1.21259e-014 -5.1684e-015
lhumerus -87.6081 -25.6772 114.894
lradius 110.457
lwrist 29.1513
lhand -25.5 -19.6937
lfingers 7.12502
lthumb 1.02863 10.2836
rfemur -8.66389 1.1591 15.4356
rtibia 10.1523
rfoot -16.457 -9.71533
rtoes -13.9098
lfemur -17.8101 1.34186 -12.0158
ltibia 29.2753
lfoot -22.0424 9.94574
ltoes -56.4294
512
root -0.662848 18.6671 5.94951 10.2484 -6.19015 -2.48549
lowerback 22.3285 -1.47957 3.67218
upperback 2.73595 -0.856156 1.94368
thorax -9.50388 -0.507718 0.297021
lowerneck -13.778 -8.73114 -8.51977
upperneck 17.7658 -11.9745 8.88124
head 8.89095 -5.36588 2.90544
rclavicle 7.65321e-015 -1.78906e-014
rhumerus -86.2235 23.3788 -106.07
rradius 110.631
rwrist -9.04902
rhand -12.741 -42.9936
rfingers 7.12502
rthumb 13.3429 -72.5464
lclavicle 7.65321e-015 -1.78906e-014
lhumerus -87.5999 -25.7949 114.992
lradius 110.413
lwrist 29.1966
lhand -25.6314 -19.7179
lfingers 7.12502
lthumb 0.901729 10.26
rfemur -8.63818 1.21673 15.3434
rtibia 10.0513
rfoot -16.3009 -9.68204
rtoes -14.5261
lfemur -17.7277 1.38547 -12.1138
ltibia 29.288
lfoot -22.1449 10.012
ltoes -56.3083
513
root -0.652224 18.6667 5.94345 10.1969 -6.46608 -2.49261
lowerback 22.2827 -1.44836 3.68601
upperback 2.77894 -0.813065 1.98327
thorax -9.42991 -0.486564 0.317893
lowerneck -13.6703 -8.70674 -8.58784
upperneck 17.5963 -11.9312 8.94041
head 8.81802 -5.35109 2.94681
rclavicle -9.54166e-015 5.1684e-015
rhumerus -86.1793 23.3946 -105.936
rradius 110.624
rwrist -9.02623
rhand -12.6832 -42.7515
rfingers 7.12502
rthumb 13.3985 -72.3006
lclavicle -9.54166e-015 5.1684e-015
lhumerus -87.5557 -25.8519 115.047
lradius 110.412
lwrist 29.219
lhand -25.6753 -19.6591
lfingers 7.12502
lthumb 0.859305 10.319
rfemur -8.62182 1.39784 15.279
rtibia 9.98351
rfoot -16.1623 -9.68549
rtoes -14.9238
lfemur -17.6236 1.52285 -12.179
ltibia 29.2916
lfoot -22.2011 10.1391
ltoes -56.3263
514
root -0.640953 18.6666 5.93567 10.1371 -6.78733 -2.49791
lowerback 22.2891 -1.42809 3.62052
upperback 2.82805 -0.798956 2.04123
thorax -9.37662 -0.476026 0.413946
lowerneck -13.7057 -8.64585 -8.47236
upperneck 17.5809 -11.8233 8.73471
head 8.78747 -5.31194 2.87375
rclavicle -1.74931e-014 6.36111e-015
rhumerus -86.1998 23.5413 -105.883
rradius 110.655
rwrist -9.02732
rhand -12.7528 -42.581
rfingers 7.12502
rthumb 13.3315 -72.1345
lclavicle -1.74931e-014 6.36111e-015
lhumerus -87.4955 -25.8268 115.099
lradius 110.443
lwrist 29.3004
lhand -25.7632 -19.6896
lfingers 7.12502
lthumb 0.774482 10.2887
rfemur -8.62201 1.62362 15.2037
rtibia 9.9355
rfoot -16.0658 -9.66883
rtoes -14.8235
lfemur -17.5138 1.80791 -12.2586
ltibia 29.278
lfoot -22.1761 10.2093
ltoes -56.4258
